<svg id="Capa_1" enable-background="new 0 0 497 497" height="512" viewBox="0 0 497 497" width="512" xmlns="http://www.w3.org/2000/svg"><g><path d="m496.904 248.5c0 86.607-44.306 162.866-111.488 207.349-39.279 26.007-86.377 29.439-137.012 29.439-137.243 0-232.787-99.544-232.787-236.787 0-72.623 15.44-137.969 65.111-183.406 44.197-40.43 103.056-65.095 167.676-65.095 137.243 0 248.5 111.257 248.5 248.5z" fill="#e27c48"/><path d="m368.404 408.691-67.918-2.043c-20.911 0-39.711-13.151-35.728-33.679l13.165-62.159c3.033-15.636 16.725-26.927 32.652-26.927l51.15.722c12.651 0 22.271 1.017 27.88 11.784 1.453 2.788 2.527 5.82 3.151 9.036l13.104 67.546-4.405 6.102c3.983 20.53-12.14 29.618-33.051 29.618z" fill="#b36d3c"/><path d="m307.346 414.87-9.92-4.647c-20.91 0-38.458-11.64-34.468-32.17l-3.816-5.08 13.104-67.543c.624-3.219 1.699-6.254 3.152-9.044 2.873-5.515 15.878-6.596 12.848 9.044l-13.55 69.84c-3.99 20.53 11.74 39.6 32.65 39.6z" fill="#995e34"/><path d="m364.446 408.691-63.96-2.043c-20.91 0-40.245-7.563-36.265-28.085l-5.085-5.591c8.958-6.098 19.768-9.657 31.409-9.657 15.94 0 30.323 6.679 40.527 17.384.773.811 2.08.811 2.852 0 10.204-10.705 24.588-17.384 40.527-17.384 11.641 0 22.451 3.559 31.409 9.657l.444 2.306c1.738 8.963-.282 17.649-4.851 24.591-5.89 8.952-25.23 8.822-37.007 8.822z" fill="#ffaa4d"/><path d="m295.163 399.87c-12.901 0-22.879-11.648-20.518-24.331.017-.09.034-.179.051-.269l1.98-10.22c-6.34 1.62-12.26 4.33-17.53 7.92l-.35 1.76-.1.55c-1.738 8.963.283 17.649 4.852 24.59h-.002c6.011 9.248 16.759 15.084 27.8 15h16 66.31c11.78 0 21.91-6.05 27.8-15z" fill="#e69642"/><path d="m351.901 278.5 4.631 13.191-4.631 13.417c0 6.123-4.964 11.087-11.087 11.087h-7.835l-8.809-1.653c-6.123 0-10.277-4.217-10.277-10.34l1.34-23.17 11.862-2.532z" fill="#fcf7ed"/><path d="m338.186 316.2h-14c-6.13 0-11.09-4.97-11.09-11.09l-2.649-12.142 2.649-14.468h14v26.61c0 6.12 4.96 11.09 11.09 11.09z" fill="#f7e5c1"/><path d="m389.597 296.394v8.714c0 6.123-4.964 11.087-11.087 11.087h-6.021l-8.681-2.547c-6.123 0-10.34-3.515-10.34-9.638l1.085-22.468h8.204c1.973 0 1.26-2.869 3.149-2.536 10.217 1.804 18.956 8.293 23.691 17.388z" fill="#fcf7ed"/><path d="m313.097 278.5v26.609c0 6.123-4.964 11.087-11.087 11.087h-5.18l-10.383-1.504c-6.123 0-8.255-3.877-8.255-10l3.404-6.128c3.146-6.044 1.866-13.107 7.807-16.239 4.652-2.452 9.934-3.825 15.489-3.825z" fill="#fcf7ed"/><path d="m376.986 316.2h-14c-6.12 0-11.08-4.97-11.08-11.09v-26.61h8.2c1.97 0 3.91.17 5.8.51v26.1c0 6.12 4.96 11.09 11.08 11.09z" fill="#f7e5c1"/><path d="m300.486 316.2h-14c-6.12 0-11.08-4.97-11.08-11.09v-8.72c3.15-6.04 8.06-10.93 14-14.06v22.78c0 6.12 4.96 11.09 11.08 11.09z" fill="#f7e5c1"/><path d="m312.096 191.5c0 37.279-30.221 67.5-67.5 67.5s-57.468-67.5-57.468-67.5-.099-40.425 15.403-52.793c11.537-9.205 26.158-14.707 42.065-14.707 37.279 0 67.5 30.221 67.5 67.5z" fill="#fcf7ed"/><path d="m301.266 228.17c-12.02 18.55-32.91 30.83-56.67 30.83-37.28 0-67.5-30.22-67.5-67.5 0-23.76 12.28-44.65 30.83-56.67-6.85 10.56-10.83 23.15-10.83 36.67 0 37.28 30.22 67.5 67.5 67.5 13.52 0 26.11-3.98 36.67-10.83z" fill="#f7e5c1"/><path d="m487.787 191.5c0 37.279-30.221 67.5-67.5 67.5s-57.468-67.5-57.468-67.5-.099-40.425 15.403-52.793c11.537-9.205 26.159-14.707 42.065-14.707 37.279 0 67.5 30.221 67.5 67.5z" fill="#fcf7ed"/><path d="m476.957 228.17c-12.02 18.55-32.91 30.83-56.67 30.83-37.28 0-67.5-30.22-67.5-67.5 0-23.76 12.28-44.65 30.83-56.67-6.85 10.56-10.83 23.15-10.83 36.67 0 37.28 30.22 67.5 67.5 67.5 13.52 0 26.11-3.98 36.67-10.83z" fill="#f7e5c1"/><path d="m280.596 183.31c-1.061 10.049-9.416 12.512-12.435 15.274-.587.537-1.529.144-1.577-.65-.549-9.17-3.627-17.342-7.226-23.946-4.145-7.606-4.848-5.113-7.308-7.68-.588-.613-1.619-.2-1.629.649-.485 40.864-15.929 31.718-15.974 55.521-.033 17.271 29.135 29.957 29.135 29.957s3.817 1.124 5.892.712c14.529-2.881 25.594-15.789 25.594-31.123 0-11.085-3.334-21.69-6.967-29.956-2.799-6.369-4.005-6.422-5.773-9.165-.48-.745-1.639-.476-1.732.407z" fill="#e69642"/><path d="m270.376 252.95c-2.36.55-4.81.82-7.32.8-17.27-.16-30.99-14.57-30.96-31.84.05-23.81 13.71-22.11 14.19-62.97.01-.85 1.04-1.26 1.63-.65 2.46 2.57 7.3 8.09 11.44 15.7-3.16 25.84-13.22 27.5-13.26 47.92-.03 14.97 10.28 27.79 24.28 31.04z" fill="#e27c48"/><path d="m229.371 39.506 71.237 28.703c7.697 3.101 11.423 11.855 8.321 19.553-2.879 7.145-15.995 5.296-23.249 3.313l-64.85-18.384c-9.698-2.64-19.581-8.359-18.063-18.063.111-.712.263-1.424.457-2.135 2.834-10.409 13.569-16.551 23.978-13.717.708.193 1.501.466 2.169.73z" fill="#b36d3c"/><path d="m442.702 71.67-63.064 19.915c-7.855 2.678-19.494 5.527-22.172-2.328-2.486-7.291.954-15.171 7.743-18.406l69.295-33.117c9.734-4.652 21.395-.532 26.047 9.201.581 1.217 1.026 2.464 1.339 3.723 2.195 8.816-8.553 16.077-17.07 20.147-.661.318-1.44.629-2.118.865z" fill="#b36d3c"/><path d="m309.796 84.71c-.18 1.03-.47 2.05-.87 3.05-2.88 7.15-10.63 10.87-17.88 8.88l-74.11-20.17c-9.69-2.64-15.69-12.14-14.16-21.84 1.24.54 2.54 1 3.89 1.39l96.57 27.72c2.21.64 4.43.96 6.56.97z" fill="#995e34"/><path d="m451.346 72.98c-.66.32-1.44.63-2.11.87l-72.7 24.78c-7.85 2.68-16.39-1.52-19.07-9.37-.33-.97-.56-1.95-.68-2.93 3.32.58 7.02.3 10.68-1l89.41-31.6c.84-.3 1.8-.69 2.62-1.07.88-.41 1.73-.85 2.54-1.34 1.84 8.62-2.38 17.69-10.69 21.66z" fill="#995e34"/><path d="m416.846 431.38c-44.27 40.74-103.35 65.62-168.25 65.62-137.24 0-248.5-111.26-248.5-248.5 0-90.32 48.18-169.38 120.25-212.88-49.34 45.42-80.25 110.54-80.25 182.88 0 137.24 111.26 248.5 248.5 248.5 46.92 0 90.81-13.01 128.25-35.62z" fill="#d1653f"/><path d="m287.926 191.68c-.52.8-1.23 1.55-2.04 2.25-3.57 3.08-8.19 4.68-12.9 4.78l-5.43.12c.21-.01.43-.09.61-.25 2.61-2.39 7.9-8.25 9.95-16.31l.01-.01c.327-1.28.561-2.56.7-3.88.05-.53.49-.84.94-.84.416-.019.734.312.922.647 2.5 3.898 5.299 9.092 7.238 13.493z" fill="#e27c48"/><path d="m456.402 183.31c-1.061 10.049-9.416 12.512-12.435 15.274-.586.537-1.529.144-1.576-.65-.549-9.17-3.627-17.342-7.226-23.946-4.145-7.606-4.848-5.113-7.308-7.68-.588-.613-1.619-.2-1.629.649-.485 40.864-15.929 31.718-15.974 55.521-.033 17.271 29.135 29.957 29.135 29.957s3.817 1.124 5.892.712c14.529-2.881 25.594-15.789 25.594-31.123 0-11.085-3.334-21.69-6.967-29.956-2.799-6.369-4.005-6.422-5.773-9.165-.481-.745-1.64-.476-1.733.407z" fill="#e69642"/><g fill="#e27c48"><path d="m446.182 252.95c-2.36.55-4.81.82-7.32.8-17.27-.16-30.99-14.57-30.96-31.84.05-23.81 13.71-22.11 14.19-62.97.01-.85 1.04-1.26 1.63-.65 2.46 2.57 7.3 8.09 11.44 15.7-3.16 25.84-13.22 27.5-13.26 47.92-.03 14.97 10.28 27.79 24.28 31.04z"/><path d="m463.732 191.68c-.52.8-1.23 1.55-2.04 2.25-3.57 3.08-8.19 4.68-12.9 4.78l-5.43.12c.21-.01.43-.09.61-.25 2.61-2.39 7.9-8.25 9.95-16.31l.01-.01c.327-1.28.561-2.56.7-3.88.05-.53.49-.84.94-.84.416-.019.734.312.922.647 2.501 3.898 5.299 9.092 7.238 13.493z"/></g></g></svg>