<svg id="Capa_1" enable-background="new 0 0 497 497" height="512" viewBox="0 0 497 497" width="512" xmlns="http://www.w3.org/2000/svg"><g><path d="m305.86 38.819c35.179-44.957 122.095-34.747 135.575-32.681 1.037.159 1.911.843 2.315 1.812.963 2.312 6.17 4.166 8.465 10.74 10.205 29.231 27.585 93.548-1.135 130.25z" fill="#ffd764"/><path d="m328.895 57.457c22.776-29.106 76.121-19.45 86.795-17.872 1.048.155 1.928.843 2.33 1.824.846 2.061 7.046.54 8.808 5.84 6.772 20.379 16.351 60.042-1.724 83.141z" fill="#ffaa4d"/><path d="m429.365 83.21c-21.478-21.961-46.283-39.53-73.288-52.227-3.289-1.547-2.98-6.352.493-7.424 36.707-11.324 80.813-6.863 95.645-4.869-2.29-6.58-4.23-11.38-5.19-13.69-.4-.96-1.28-1.65-2.32-1.81-12.035-1.839-86.663-11.788-127.561 18.095-4.898 3.589-9.355 7.786-13.109 12.565l147.04 115.09c5.45-6.96 9.24-14.92 11.73-23.44-9.5-15.08-20.69-29.25-33.44-42.29z" fill="#ffaa4d"/><path d="m435.385 89.58c-1.96-2.15-3.97-4.28-6.02-6.37-11.411-11.67-23.763-22.1-36.886-31.216-2.316-1.609-1.296-5.246 1.517-5.447 13.077-.935 25.211-.109 32.829.703-1.76-5.3-3.33-9.3-4.18-11.36-.4-.98-1.28-1.67-2.33-1.82-7.427-1.1-38.204-4.919-63.905 2.678-10.371 3.051-20.465 8.188-27.515 16.562l.006.005c-.3.357-.598.716-.886 1.085l14.94 11.7c.318-.35.658-.675.986-1.013l82.004 64.183c7.99-10.98 10.12-25.4 9.44-39.69z" fill="#e69642"/><path d="m253.187 23.143c-22.891-.434-45.052 2.394-66.066 8.026-1.002.269-2.36-.159-3.048-.936-28.903-32.652-89.493-31.867-120.928-28.911-8.811.829-12.027 8.12-14.917 8.602-1.032.172-1.893.861-2.283 1.832-4.738 11.807-31.169 82.803-5.63 129.095 1.539 2.79 7.503 7.671 7.503 7.671-1.27 2.37-7.32 6.604-8.511 9.021-15.501 31.468-19.622 63.155-19.66 100.596-.13 131.261 104.056 230.128 235.317 230.297 63.533.082 114.572-16.277 157.167-56.908 45.095-43.016 73.246-103.64 73.423-170.84.341-129.155-103.234-235.094-232.367-237.545z" fill="#ffd764"/><path d="m202.332 266.749c1.208 1.183 3.031 1.495 4.55.751 4.233-2.072 5.689 2.149 10.374.802 7.533-2.167 15.587-3.34 23.957-3.34 13.576 0 26.32 3.087 37.36 8.492 1.519.744 3.344.432 4.551-.753 23.241-22.822 23.765-60.835.611-84.248-11.049-11.235-25.454-17.168-40.047-17.771-15.91-.658-25.238 7.156-37.487 19.201-23.817 23.24-27.383 53.831-3.869 76.866z" fill="#fcf7ed"/><path d="m383.157 268.11c1.208 1.183 3.031 1.495 4.549.751 4.233-2.072 7.167.787 11.851-.56 7.533-2.167 15.587-3.34 23.958-3.34 13.576 0 26.32 3.087 37.36 8.492 1.519.744 3.344.432 4.551-.753 23.241-22.822 23.765-60.835.611-84.248-11.13-11.318-25.665-17.254-40.368-17.783-15.805-.569-28.071 8.611-40.238 20.575-23.815 23.24-25.788 53.831-2.274 76.866z" fill="#fcf7ed"/><path d="m221.395 187.75c-22.35 21.82-23.54 57.24-4.14 80.55-4.68 1.35-9.17 3.08-13.4 5.15-1.52.75-3.34.43-4.55-.75-23.51-23.03-23.72-61.71.09-84.95 14.45-14.21 34.3-19.56 52.81-16.1-11.26 2.1-22.03 7.47-30.81 16.1z" fill="#f7e5c1"/><path d="m403.697 187.75c-22.35 21.82-23.54 57.24-4.14 80.55-4.68 1.35-9.17 3.08-13.4 5.15-1.52.75-3.34.43-4.55-.75-23.51-23.03-23.72-61.71.09-84.95 14.45-14.21 34.3-19.56 52.82-16.1-11.26 2.1-22.03 7.47-30.82 16.1z" fill="#f7e5c1"/><path d="m268.295 475c-163.028 3.924-289.393-176.82-211.37-322.65 1.19-2.46 10.62-4.68 11.89-7.09 0 0-11.89-5.51-13.43-8.34-24.77-45.57 1.81-120.19 7.76-135.6-8.81.83-15.33 1.83-18.22 2.31-1.03.17-1.89.86-2.28 1.83-4.74 11.81-33.8 88.55-8.26 134.84 1.54 2.79 13.43 8.22 13.43 8.22-1.27 2.37-10.7 4.56-11.89 6.98-75.072 151.704 31.2 333.488 200.63 341.2-.011-.002-.022-.004-.033-.005 3.9.194 7.824.3 11.773.305 74.98.1 141.85-34.64 185.34-88.92-42.74 41.49-101.06 67-165.34 66.92z" fill="#ffaa4d"/><path d="m237.035 225.911c3.189-3.136 7.408-4.565 11.546-4.321.908.053 1.728-.511 2.021-1.373 3.912-11.492.942-24.824-8.98-33.542-11.584-10.179-29.257-10.231-40.91-.132-13.733 11.902 1.233 42.744 1.233 42.744s12.402 11.624 23.383 7.892c.864-.294 1.438-1.108 1.383-2.019-.188-3.17 6.427-3.897 8.211-6.658.594-.921 1.299-1.79 2.113-2.591z" fill="#95d6a4"/><path d="m419.338 225.911c3.189-3.136 7.408-4.565 11.546-4.321.908.053 1.728-.511 2.021-1.373 3.912-11.492.942-24.824-8.98-33.542-11.584-10.179-29.257-10.231-40.91-.132-13.733 11.902 1.106 39.425 1.106 39.425s13.333 12.668 24.313 8.936c.864-.294 1.438-1.108 1.383-2.019-.188-3.17 5.624-1.623 7.407-4.383.595-.921 1.3-1.79 2.114-2.591z" fill="#95d6a4"/><path d="m232.535 237.65c.05.91-.52 1.72-1.39 2.02-10.98 3.73-23.61 1.16-32.29-7.66-12.54-12.75-11.88-33.57 1.86-45.47 1.8-1.56 3.74-2.88 5.79-3.96-6.17 11.69-4.41 26.5 5.35 36.43 6.35 6.45 14.81 9.56 23.19 9.3-1.87 2.8-2.7 6.1-2.51 9.34z" fill="#78c2a4"/><path d="m414.837 237.65c.05.91-.52 1.72-1.39 2.02-10.98 3.73-23.61 1.16-32.29-7.66-12.54-12.75-11.87-33.57 1.86-45.47 1.81-1.57 3.76-2.89 5.81-3.97-6.19 11.69-4.43 26.51 5.33 36.44 6.35 6.45 14.81 9.56 23.19 9.3-1.87 2.8-2.7 6.1-2.51 9.34z" fill="#78c2a4"/><path d="m366.315 323.193v26.67c0 11.135-5.307 21.031-13.529 27.298-5.766 4.395-12.965 3.786-20.773 3.786-18.942 0-28.451-15.526-28.451-34.468l-5.852-23.285c13.54 1.563 27.937-5.021 34.302-19.743 6.366 14.721 20.763 21.305 34.303 19.742z" fill="#e27c48"/><path d="m352.785 377.16c-5.76 4.4-12.96 7.01-20.77 7.01-18.94 0-34.3-15.36-34.3-34.31v-26.67c6.83.79 13.88-.49 20-3.86v23.53c0 18.95 15.36 34.31 34.3 34.31.26 0 .51 0 .77-.01z" fill="#d1653f"/><path d="m322.145 316.41c-1.41 1.11-2.89 2.09-4.43 2.92v-3.14c1.47.17 2.95.24 4.43.22z" fill="#d1653f"/><g><g><path d="m242.626 133.543c-3.167.901-6.623.92-10-.136-12.387-3.874-23.041-1.34-31.532 8.476-6.323 7.31-13.797 10.919-21.106 4.596-2.274-1.966-7.715-2.353-8.711-4.98-2.206-5.819-1.231-12.632 3.125-17.669 17.611-20.364 45.595-28.329 71.291-20.291 6.569 2.054 11.066 7.624 12.069 13.991.406 2.575-3.071 4.908-3.902 7.564-1.829 5.848-5.75 6.888-11.234 8.449z" fill="#b36d3c"/></g></g><g><g><path d="m257.175 125.47c-1.83 5.84-6.45 10.05-11.93 11.61-3.17.9-6.62.92-10-.13-12.39-3.88-25.88-.04-34.37 9.78-6.32 7.31-17.38 8.11-24.68 1.79-2.28-1.97-3.92-4.39-4.92-7.02 7.42.54 15.56-2.01 21.29-7.26 11.72-10.74 29.38-15.76 44.99-12.81 4.26.81 8.7.51 12.85-.67 2.62-.74 5.11-1.84 7.36-3.23.4 2.58.24 5.28-.59 7.94z" fill="#995e34"/></g></g><g><path d="m91.925 136.13c-13.93 12.77-31.21 19.85-48.09 19.85-1.61 0-3.23-.06-4.83-.19l-3.08-.29c.912-1.855 1.848-3.693 2.807-5.517.536-1.019.433-2.241-.239-3.176-1.502-2.091-2.87-4.264-4.109-6.507l5.93.55c14.14 1.15 29.28-4.6 41.47-15.78 3.05-2.8 7.8-2.59 10.6.46 2.801 3.06 2.591 7.8-.459 10.6z" fill="#ffaa4d"/></g><path d="m144.64 40.023c-19.905-9.186-46.196-8.795-62.224-7.384-5.892.519-6.333 4.725-8.625 5.094-1.045.168-1.925.868-2.314 1.852-3.205 8.109-19.786 36.66-12.766 66.128.341 1.432 2.077 2.003 3.216 1.071l10.728-4.103 72.4-59.293c1.139-.934.921-2.748-.415-3.365z" fill="#ffaa4d"/><path d="m72.655 102.68-12.17 9.97c-1.14.93-2.88.36-3.22-1.07-7.02-29.47 6.94-67.44 10.15-75.54.39-.99 1.27-1.69 2.31-1.86 2.29-.37 6.8-1.02 12.69-1.55-4.21 11.29-14.8 43.51-9.76 70.05z" fill="#e69642"/><g><g><path d="m446.371 140.691c-3.252-.514-6.396-1.95-9.016-4.329-9.61-8.724-22.897-10.198-34.729-4.863-8.811 3.974-16.454 2.343-20.427-6.468-1.892-4.194-5.235-7.66-3.873-11.701 1.5-4.448 4.774-8.285 9.391-10.367 24.542-11.07 53.281-6.528 73.214 11.57 4.473 4.061 6.359 9.907 5.558 15.468-.48 3.336-3.724 5.454-6.161 8.137-4.118 4.537-8.326 3.443-13.957 2.553z" fill="#b36d3c"/></g></g><g><g><path d="m466.445 130.22c-.5 3.26-1.94 6.41-4.32 9.03-4.12 4.54-10.07 6.42-15.71 5.53-3.25-.52-6.39-1.95-9.01-4.33-9.61-8.73-23.47-10.91-35.3-5.58-8.81 3.97-19.17.05-23.15-8.76-1.89-4.19-1.99-8.74-.63-12.78 5.94 6.51 16.4 9.19 25.31 5.99 13.94-5 30.52-2.38 42.24 6.68 3.19 2.47 6.98 4 10.88 4.62 3.26.51 6.58.38 9.69-.4z" fill="#995e34"/></g></g><g><path d="m362.418 330.921c-12.017 0-22.875-5-30.406-13.577-7.53 8.577-18.389 13.577-30.405 13.577-16.462 0-30.75-9.385-37.287-24.494-1.646-3.801.103-8.217 3.904-9.862 3.801-1.646 8.217.103 9.861 3.905 4.93 11.392 15.383 15.451 23.521 15.451 8.14 0 18.593-4.059 23.522-15.451 1.188-2.745 3.892-4.521 6.883-4.521 2.99 0 5.695 1.776 6.883 4.521 4.931 11.392 15.384 15.451 23.523 15.451s18.592-4.059 23.521-15.451c1.644-3.802 6.059-5.551 9.861-3.905 3.802 1.645 5.55 6.061 3.904 9.862-6.535 15.109-20.823 24.494-37.285 24.494z" fill="#b36d3c"/></g><g><path d="m332.012 310.949c-4.143 0-7.5-3.358-7.5-7.5v-28.758c0-4.142 3.357-7.5 7.5-7.5s7.5 3.358 7.5 7.5v28.758c0 4.142-3.357 7.5-7.5 7.5z" fill="#b36d3c"/></g><g><path d="m344.459 282.191h-24.894c-4.143 0-7.5-3.358-7.5-7.5s3.357-7.5 7.5-7.5h24.894c4.143 0 7.5 3.358 7.5 7.5s-3.357 7.5-7.5 7.5z" fill="#b36d3c"/></g></g></svg>