<?xml version="1.0" encoding="iso-8859-1"?>
<!-- Generator: Adobe Illustrator 19.0.0, SVG Export Plug-In . SVG Version: 6.00 Build 0)  -->
<svg version="1.1" id="Capa_1" xmlns="http://www.w3.org/2000/svg" xmlns:xlink="http://www.w3.org/1999/xlink" x="0px" y="0px"
	 viewBox="0 0 511.96 511.96" style="enable-background:new 0 0 511.96 511.96;" xml:space="preserve">
<circle style="fill:#F4D44E;" cx="256" cy="255.96" r="255.96"/>
<path style="fill:#E8C842;" d="M172.398,451.935C11.245,358.893,1.46,131.055,150.506,23.523
	C103.321,44.752,62.118,80.456,34.272,128.687C-36.279,250.886,5.589,407.14,127.787,477.691
	c89.928,51.919,198.295,42.951,277.38-14.107C332.804,496.142,246.365,494.639,172.398,451.935z"/>
<g>
	<path style="fill:#656566;" d="M144.103,332.087c-1.765-3.885-0.048-8.466,3.837-10.232c3.884-1.765,8.466-0.048,10.232,3.837
		c38.433,84.554,158.088,83.043,195.65,0.012c1.758-3.888,6.337-5.613,10.225-3.854c3.888,1.758,5.614,6.336,3.856,10.225
		C325.028,426.844,188.108,428.89,144.103,332.087z"/>
	<path style="fill:#656566;" d="M419.016,145.608c-20.481,0-173.975,0-195.945,0l0,0c-8.433,0-133.65,0-130.089,0
		c-24.078,0-43.598,19.519-43.598,43.598l0,0h0.019c0.409,47.612,39.115,86.087,86.825,86.087c35.105,0,65.315-20.844,79-50.818
		l0.022,0.008c0.843-2.06,2.698-5.875,4.541-12.399c0.866-2.727,9.567-26.794,9.524-26.675c1.976-5.489,7.182-9.148,13.015-9.148
		h27.338c5.833,0,11.041,3.659,13.015,9.148l8.939,24.835c4.472,14.083,3.552,10.072,5.126,14.24l0.022-0.008
		c13.686,29.975,43.895,50.818,79,50.818c47.709,0,86.416-38.475,86.825-86.087h0.019l0,0
		C462.614,165.128,443.095,145.608,419.016,145.608z"/>
</g>
<path style="fill:#4F4F51;" d="M100.916,189.207h-0.019l0,0c0-24.078,19.519-43.598,43.598-43.598c-0.025,0-0.049,0-0.073,0
	c-26.702,0-50.161,0-51.438,0c-24.078,0-43.598,19.519-43.598,43.598l0,0h0.019c0.409,47.612,39.115,86.087,86.825,86.087
	c8.966,0,17.607-1.367,25.741-3.891C126.826,260.494,101.249,227.862,100.916,189.207z"/>
<g>
</g>
<g>
</g>
<g>
</g>
<g>
</g>
<g>
</g>
<g>
</g>
<g>
</g>
<g>
</g>
<g>
</g>
<g>
</g>
<g>
</g>
<g>
</g>
<g>
</g>
<g>
</g>
<g>
</g>
</svg>
