<svg id="Capa_1" enable-background="new 0 0 498.682 498.682" height="512" viewBox="0 0 498.682 498.682" width="512" xmlns="http://www.w3.org/2000/svg"><g><path d="m497 249.341c0 97.996-56.724 182.744-139.13 223.2-33.002 16.202-70.124 11.97-109.37 11.97-137.243 0-230.404-97.927-230.404-235.17 0-79.575 19.307-150.415 77.492-195.897 42.165-32.96 95.245-52.603 152.912-52.603 61.689 0 118.129 22.479 161.574 59.692 0 0 5.813 21.317 14.618 31.808 6.355 7.572 26.51 12.874 31.939 21.176 25.528 39.038 40.369 85.698 40.369 135.824z" fill="#ffd764"/><path d="m416.75 432.221c-44.27 40.74-103.35 65.62-168.25 65.62-137.24 0-248.5-111.26-248.5-248.5 0-90.32 48.18-169.38 120.25-212.88-49.34 45.42-80.25 110.54-80.25 182.88 0 137.24 111.26 248.5 248.5 248.5 46.92 0 90.81-13.01 128.25-35.62z" fill="#ffaa4d"/><path d="m491.89 205.162c0 8.357-2.294 16.178-6.287 22.869-7.799 13.067-22.078 14.895-38.401 14.895-24.68 0-42.298-13.819-42.298-38.499 0-16.968 7.067-30.991 20.997-38.558 6.332-3.44 13.588-5.394 21.301-5.394 24.681-.001 44.688 20.007 44.688 44.687z" fill="#fcf7ed"/><path d="m486.5 226.461c-7.57 13.93-22.33 23.39-39.3 23.39-24.68 0-44.69-20.01-44.69-44.69 0-16.97 9.46-31.73 23.39-39.3-3.44 6.33-5.39 13.59-5.39 21.3 0 24.68 20.01 44.69 44.69 44.69 7.71 0 14.97-1.95 21.3-5.39z" fill="#f7e5c1"/><path d="m460.117 218.323c0 3.36-.635 6.571-1.793 9.52-3.803 9.693-13.242 11.945-24.283 11.945-14.401 0-22.499-8.195-22.499-22.596 0-10.364 2.47-18.186 11.228-22.39 3.411-1.638 7.234-2.555 11.271-2.555 14.402 0 26.076 11.674 26.076 26.076z" fill="#8c818f"/><path d="m458.32 227.841c-3.8 9.69-13.24 16.56-24.28 16.56-14.4 0-26.07-11.68-26.07-26.08 0-10.37 6.05-19.32 14.8-23.52-1.16 2.95-1.8 6.16-1.8 9.52 0 14.4 11.67 26.08 26.07 26.08 4.04 0 7.86-.92 11.28-2.56z" fill="#766d78"/><path d="m220.904 205.107c0-20.65 5.581-38.803 21.492-49.558 9.554-6.458 21.072-10.229 33.472-10.229 33.05 0 59.842 26.792 59.842 59.842 0 13.453-4.439 25.87-11.933 35.864-10.916 14.559-28.313 19.23-47.909 19.23-33.05 0-54.964-22.099-54.964-55.149z" fill="#fcf7ed"/><path d="m325.53 238.551c-10.75 15.96-28.98 26.45-49.66 26.45-33.05 0-59.84-26.79-59.84-59.84 0-21.84 11.7-40.95 29.18-51.39-6.43 9.54-10.18 21.03-10.18 33.39 0 33.05 26.79 59.84 59.84 59.84 11.21 0 21.7-3.08 30.66-8.45z" fill="#f7e5c1"/><path d="m275.868 145.32c19.135 0 34.702 15.567 34.702 34.702 0 4.219-.757 8.265-2.142 12.008-4.897 13.234-17.644 17.356-32.56 17.356-19.135 0-31.815-11.187-31.815-30.322 0-13.549 4.917-24.352 16.267-30.063 4.68-2.355 9.962-3.681 15.548-3.681z" fill="#8c818f"/><path d="m308.43 192.031c-4.9 13.24-17.65 22.69-32.56 22.69-19.14 0-34.7-15.56-34.7-34.7 0-13.55 7.8-25.31 19.15-31.02-1.39 3.74-2.15 7.8-2.15 12.02 0 19.14 15.56 34.7 34.7 34.7 5.59 0 10.88-1.33 15.56-3.69z" fill="#766d78"/><path d="m303.617 98.352c-14.852-13.209-41.675-12.765-54.202 2.797-7.123 8.49-16.276 11.081-24.766 3.957-3.975-3.335-8.53-5.29-9.181-10.056-.74-5.413.72-11.107 4.508-15.623 20.634-21.721 55.255-28.102 82.136-15.159 8.407 3.921 15.944 9.518 22.055 16.206 2.611 2.857 3.909 6.45 3.929 10.038.022 4.096-5.589 6.762-8.851 9.743-5.64 5.153-9.515 3.282-15.191-1.532z" fill="#b36d3c"/><path d="m328.08 89.921c.19 4.29-1.45 8.64-4.87 11.76-5.64 5.15-14.14 5.19-19.82.38-14.808-13.567-40.006-12.569-52.67 3.16-7.12 8.49-19.78 9.6-28.27 2.48-3.98-3.34-6.33-7.88-6.98-12.65 10.07 4.36 22.83 2.56 30.45-4.83 16.743-16.141 46.005-16.578 64.73-3.16 4.9 3.38 11.52 4.36 17.43 2.86z" fill="#995e34"/><path d="m415.288 63.842c3.05 4.238 6.828 7.751 11.083 10.381 4.25 2.633 8.974 4.377 13.779 5.152 4.81.766 9.678.557 14.216-.545 4.546-1.099 8.752-3.08 12.455-5.769 8.967-6.513 21.516-4.523 28.029 4.444 2.049 2.821 3.256 5.996 3.669 9.226.901 7.039-6.107 13.657-12.254 18.121-33.404 21.699-93.447-26.723-93.447-26.723s-5.053-12.993.297-17.478c.764-.641 1.604-1.214 2.516-1.707 6.72-3.634 14.981-1.614 19.322 4.432z" fill="#b36d3c"/><path d="m490.41 105.531c-33.404 21.701-82.624 9.23-100.84-26.24-3.51-6.5-1.75-14.42 3.82-18.86.28.97.68 1.93 1.18 2.86 4.31 7.96 10.27 15.22 17.47 21.06 14.588 11.917 33.963 17.614 52.84 15.57 11.734-1.589 24.727-4.892 33.64-13.19.9 7.04-1.97 14.34-8.11 18.8z" fill="#995e34"/><path d="m353.958 309.848c-20.986 0-40.522-3.21-56.909-8.734-3.411-1.15-6.724 2.953-9.847 1.61-7.157-3.077-9.447-2.583-9.447 4.34 0 0 28.603 65.687 71.363 65.687h9.678c42.76 0 77.424-30.04 77.424-67.097 0-6.923-8.39-11.36-15.546-8.283-18.123 7.791-41.362 12.477-66.716 12.477z" fill="#b36d3c"/><path d="m366.78 372.391c-2.63.24-5.29.36-7.98.36h-9.68c-21.38 0-40.74-7.51-54.75-19.65s-22.68-28.92-22.68-47.45c0-6.92 8.39-11.36 15.55-8.28 3.12 1.34 6.4 2.59 9.81 3.74 1.76 18.84 9.97 35.76 22.32 48.41 12.39 12.69 28.96 21.1 47.41 22.87z" fill="#995e34"/><path d="m439.85 443.431c-1.653 3.498-3.673 6.706-5.991 9.598-13.641 17.015-34.679 16.443-55.252 6.717-14.704-7.815-26.398-21.815-36.255-34.468-6.07-8.131-8.381-9.392-12.511-18.222-8.25-17.66-12.798-32.68-14.128-50.97-.026-.364-.047-.727-.064-1.089-.105-2.31 1.374-4.381 3.586-5.054 4.288-1.303 2.315-5.965 6.674-6.896 5.004-1.068 10.046-1.892 15.111-2.47 1.676-.191 6.715 7.476 8.395 7.338 3.36-.275 3.367-8.274 6.735-8.335 10.038-.18 20.088.592 30.012 2.316 1.699.295 3.118 1.477 3.753 3.08 7.781 19.659 16.015 29 28.085 39.864 20 18.001 33.23 34.521 21.85 58.591z" fill="#e27c48"/><path d="m436.37 449.591c-13.03 19.6-38.81 27.19-60.71 16.83-3.78-1.78-7.23-4-10.3-6.56l-5.22-4.42c-8.27-6.97-15.35-14.65-21.42-22.77-6.07-8.13-11.12-16.7-15.25-25.53-8.25-17.66-12.73-36.31-14.06-54.6-.03-.36-.05-.73-.06-1.09-.11-2.31 1.37-4.38 3.58-5.05 4.29-1.3 8.62-2.42 12.98-3.35 1.77 16.51 6.14 33.2 13.56 49.09 4.13 8.83 9.18 17.4 15.25 25.53 6.07 8.12 13.15 15.8 21.42 22.77l5.22 4.42c3.07 2.56 6.52 4.78 10.3 6.56 14.85 7.02 31.48 5.79 44.71-1.83z" fill="#d1653f"/><g><path d="m389.46 413.981c-1.47 1.57-3.47 2.36-5.46 2.36-1.84 0-3.69-.68-5.14-2.04-18.07-17.01-27.67-34.92-36.69-68.44-.04-.12-.07-.24-.09-.37l-1.06-4.91c5.03-.57 10.08-.9 15.13-.99l.55 2.55c8.19 30.37 16.69 46.41 32.44 61.24 3.02 2.84 3.16 7.58.32 10.6z" fill="#d1653f"/></g></g></svg>