<svg id="Capa_1" enable-background="new 0 0 497 497" height="512" viewBox="0 0 497 497" width="512" xmlns="http://www.w3.org/2000/svg"><g><path d="m497 248.5c0 78.956-36.823 149.312-94.233 194.83-42.381 33.602-182.373 41.531-182.373 41.531s-202.979-99.764-202.979-237.007c0-80.06 20.445-150.632 79.239-196.08 41.992-32.46 94.664-51.774 151.846-51.774 137.243 0 248.5 111.257 248.5 248.5z" fill="#ffd764"/><path d="m199.107 128.609 14.298-1.952 87.842 53.933c1.284.789 2.003 2.232 1.898 3.735-2.317 33.086-28.009 59.726-60.675 63.483-3.119.359-6.419-1.512-9.65-1.585-35.905-.808-60.429-27.989-61.957-63.871-1.12-26.296 3.25-41.232 24.055-53.746 1.29-.776 2.904-.785 4.189.003z" fill="#fcf7ed"/><path d="m246.05 247.29c-4.25.72-8.63 1.05-13.11.95-35.91-.8-65.64-29.9-67.17-65.78-1.12-26.3 12.53-49.5 33.34-62.01 1.29-.78 2.91-.79 4.19 0l10.11 6.2c-15.81 13.21-25.6 33.38-24.64 55.81 1.39 32.53 25.95 59.48 57.28 64.83z" fill="#f7e5c1"/><path d="m483.25 182.98c-.67 14.372-5.822 27.616-14.068 38.379 0 0-29.189 19.407-50.661 19.928-37.129.9-66.57-15.88-69.106-52.17-.105-1.5.624-2.938 1.907-3.723l5.102-9.844 97.599-59.668c1.883-1.151 4.329-.552 5.497 1.321 7.481 12 13.966 24.675 19.34 37.927l-.04.04c3.28 8.57 4.89 17.98 4.43 27.81z" fill="#fcf7ed"/><path d="m475.13 212.17c-11.41 21.13-33.58 35.7-58.92 36.31-37.13.9-67.78-27.64-70.32-63.93-.11-1.5.62-2.94 1.91-3.72l8.63-5.27c4.87 33.87 34.38 59.78 69.78 58.92 19.25-.47 36.66-8.98 48.92-22.31z" fill="#f7e5c1"/><g><g fill="#b36d3c"><path d="m232.836 46.582 63.622 51.04c5.156 4.136 7.065 10.82 5.37 16.803-.565 1.994-3.971 3.717-5.349 5.436-5.119 6.381-12.127 2.349-18.894-1.893l-61.276-38.298c-8.711-5.447-19.436-15.62-15.639-24.809.437-1.058.968-2.094 1.596-3.097 6.075-9.714 18.874-12.664 28.588-6.59.661.414 1.384.935 1.982 1.408z"/><path d="m414.046 46.582-63.622 51.04c-5.156 4.136-7.065 10.82-5.37 16.803.565 1.994 6.471 2.59 7.85 4.309 5.119 6.381 12.382 2.199 19.149-2.043l56.426-36.766c8.853-5.537 21.637-16.232 17.541-25.514-.398-.902-.865-1.787-1.404-2.648-6.075-9.714-18.874-12.664-28.588-6.59-.661.415-1.383.936-1.982 1.409z"/></g></g><g><g fill="#995e34"><path d="m301.8 114.49c-.56 1.97-1.52 3.87-2.88 5.57-5.12 6.38-14.14 7.78-20.91 3.54l-69.15-43.25c-9.27-5.79-12.38-17.69-7.38-27.21 1.89 4.15 5.06 7.9 9.33 10.6l76.4 48.39c4.57 2.9 9.93 3.66 14.59 2.36z"/><path d="m438.03 80.35-69.16 43.25c-6.77 4.24-15.79 2.84-20.91-3.54-1.74-2.17-2.82-4.66-3.26-7.22 5.01 2.11 11.14 1.62 16.25-1.62l75.39-47.67c4.16-2.63 7.25-6.27 9.11-10.33 4.93 9.51 1.81 21.36-7.42 27.13z"/></g></g><path d="m381.245 181.898c0 17.845 10.136 26.538 27.981 26.538 13.061 0 24.313-2.834 29.406-13.986 1.866-4.085 2.905-8.626 2.905-13.41 0-17.845-14.466-32.312-32.312-32.312-5.152 0-10.022 1.206-14.343 3.35-10.648 5.285-13.637 17.127-13.637 29.82z" fill="#e27c48"/><path d="m438.623 194.446c-5.08 11.16-16.33 18.91-29.4 18.91-17.84 0-32.31-14.47-32.31-32.32 0-13.06 7.76-24.32 18.91-29.4-1.87 4.08-2.91 8.62-2.91 13.4 0 17.85 14.47 32.32 32.31 32.32 4.78 0 9.32-1.04 13.4-2.91z" fill="#d1653f"/><path d="m272.265 180.897c0 5.56-1.404 10.792-3.878 15.361-5.465 10.095-16.149 12.179-28.434 12.179-17.845 0-28.581-9.389-28.581-27.234 0-12.61 3.493-23.838 14.028-29.162 4.374-2.21 9.318-3.455 14.553-3.455 17.845-.001 32.312 14.466 32.312 32.311z" fill="#e27c48"/><path d="m269.355 194.302c-5.09 11.16-16.34 18.91-29.4 18.91-17.85 0-32.31-14.47-32.31-32.32 0-13.06 7.75-24.32 18.91-29.4-1.87 4.08-2.91 8.62-2.91 13.4 0 17.85 14.46 32.32 32.31 32.32 4.78 0 9.32-1.04 13.4-2.91z" fill="#d1653f"/><g><path d="m325.581 407.073h-4.28c-6.259 0-12.396-1.003-18.242-2.981-3.923-1.328-6.028-5.584-4.7-9.508 1.328-3.923 5.585-6.028 9.508-4.7 4.293 1.453 8.813 2.189 13.433 2.189h4.28c4.621 0 9.14-.737 13.434-2.189 3.924-1.329 8.181.776 9.508 4.7 1.328 3.924-.776 8.181-4.7 9.508-5.844 1.978-11.982 2.981-18.241 2.981z" fill="#ffaa4d"/></g><path d="m410.818 294.71c0 18.58-7.64 35.556-20.254 48.533-15.075 15.509-36.28 20.256-61.012 20.256h-10.273c-45.415 0-76.076-23.554-76.076-64.34 0-7.615 8.918-12.508 16.511-9.119 3.368 1.493-.243-1.558 3.432-.287 17.38 6.058 38.065 9.574 60.295 9.574 21.045 0 40.712-3.146 57.499-8.621 4.692-1.525 9.161-3.241 13.366-5.115 7.605-3.389 16.512 1.504 16.512 9.119z" fill="#b36d3c"/><path d="m337.25 368.14c-2.85.27-12.847-.515-15.777-.515l-6.861-.893-43.154-21.274s-11.385 1.451-13.188-.277c-13.774-13.201-22.209-30.95-22.209-50.471 0-7.62 8.92-12.51 16.52-9.12 3.36 1.49 6.89 2.89 10.57 4.16.04.01.07.03.11.04 2.719 41.26 34.219 74.39 73.989 78.35z" fill="#995e34"/><path d="m416.74 431.39c-44.26 40.73-103.35 65.61-168.24 65.61-137.24 0-248.5-111.26-248.5-248.5 0-90.32 48.18-169.38 120.25-212.88-49.34 45.42-80.25 110.54-80.25 182.88 0 137.24 111.26 248.5 248.5 248.5 46.92 0 90.81-13 128.24-35.61z" fill="#ffaa4d"/><path d="m390.56 343.24c-15.07 15.51-37.25 25.31-61.98 25.31l-33.974-11.007-36.336-12.363 15.13-15.67c1.98-2.1 4.9-3.05 7.74-2.51 8.46 1.62 27.2 4.85 42.3 4.85 15.41 0 36.76-3.73 45.98-5.49 2.85-.54 5.77.41 7.76 2.52z" fill="#ffaa4d"/><path d="m337.25 368.14c-27.981 2.686-58.39-2.479-78.98-22.96.567-.472 16.763-17.697 16.87-17.08 13.13 22.05 35.81 37.42 62.11 40.04z" fill="#e69642"/></g></svg>