<svg id="Capa_1" enable-background="new 0 0 502 502" height="512" viewBox="0 0 502 502" width="512" xmlns="http://www.w3.org/2000/svg" xmlns:xlink="http://www.w3.org/1999/xlink"><linearGradient id="SVGID_1_" gradientUnits="userSpaceOnUse" x1="251" x2="251" y1="456.711" y2="45.289"><stop offset="0" stop-color="#fd869c"/><stop offset=".9788" stop-color="#f3385d"/></linearGradient><linearGradient id="lg1"><stop offset="0" stop-color="#fd86c8"/><stop offset=".9788" stop-color="#ffb1db"/></linearGradient><linearGradient id="SVGID_2_" gradientUnits="userSpaceOnUse" x1="105.69" x2="150.034" xlink:href="#lg1" y1="371.752" y2="327.408"/><linearGradient id="SVGID_3_" gradientUnits="userSpaceOnUse" x1="148.26" x2="148.26" xlink:href="#lg1" y1="398.262" y2="237.001"/><g><path d="m251 95.536c-169.668-165.816-448.228 111.94-37.769 350.969 23.369 13.609 52.169 13.609 75.538 0 410.459-239.029 131.899-516.785-37.769-350.969z" fill="url(#SVGID_1_)"/><g><path d="m459.427 157.937c-2.778-10.872-7.452-21.289-13.892-30.96-3.062-4.597-1.816-10.805 2.781-13.866 4.595-3.061 10.806-1.815 13.865 2.781 7.692 11.553 13.285 24.033 16.622 37.094 1.367 5.351-1.862 10.797-7.213 12.165-5.385 1.374-10.804-1.897-12.163-7.214z" fill="#fdb0bf"/></g><g><path d="m423.179 103.495c-4.17-3.024-8.582-5.636-13.114-7.763-4.999-2.347-7.15-8.302-4.804-13.301 2.346-5 8.299-7.15 13.302-4.804 5.668 2.661 11.172 5.917 16.358 9.678 4.471 3.242 5.467 9.495 2.225 13.966-3.232 4.456-9.483 5.475-13.967 2.224z" fill="#fdb0bf"/></g><g><ellipse cx="116.547" cy="208.274" fill="#fb99ac" rx="22.851" ry="18.364"/><ellipse cx="385.453" cy="208.274" fill="#fb99ac" rx="22.851" ry="18.364"/><circle cx="155.722" cy="162.962" fill="#fff" r="45.311"/><circle cx="346.278" cy="162.962" fill="#fff" r="45.311"/><g fill="#383842"><g><circle cx="155.722" cy="162.962" r="27.006"/><circle cx="346.278" cy="162.962" r="27.006"/></g><path d="m251 207.047c-7.389 0-14.776-2.795-20.804-8.384-2.025-1.877-2.145-5.041-.267-7.065 1.877-2.025 5.042-2.144 7.065-.267 8.246 7.645 19.764 7.645 28.01 0 2.023-1.877 5.188-1.759 7.065.267 1.878 2.024 1.759 5.188-.267 7.065-6.026 5.589-13.413 8.384-20.802 8.384z"/></g></g><path d="m103.208 280.582c-19.201-19.201-50.333-19.201-69.534 0l-2.789 2.789c30.122 50.316 84.189 103.966 170.355 156.018 14.977-19.287 13.621-47.153-4.095-64.87z" fill="url(#SVGID_2_)"/><path d="m164.74 415.956 36.623-36.623c-1.287-1.671-2.688-3.283-4.219-4.814l-93.937-93.937c-5.249-5.249-11.392-9.052-17.937-11.432l-38.289 38.288c26.243 35.493 64.6 72.212 117.759 108.518z" fill="#fd75be"/><path d="m199.606 247.386c-13.847-13.847-36.297-13.847-50.144 0l-83.5 83.5c19.602 22.256 44.07 44.844 74.046 67.376l80.165-80.165c13.847-13.847 13.847-36.297 0-50.144z" fill="url(#SVGID_3_)"/><g fill="#fd75be"><circle cx="124.012" cy="343.547" r="11.921"/><circle cx="168.279" cy="299.279" r="11.921"/></g></g></svg>