<svg id="Flat" height="512" viewBox="0 0 512 512" width="512" xmlns="http://www.w3.org/2000/svg"><path d="m408 176a152 152 0 1 0 -231.058 129.836 31.744 31.744 0 0 1 15.058 27.145v43.019h128v-43.023a32.1 32.1 0 0 1 15.384-27.341 151.893 151.893 0 0 0 72.616-129.636z" fill="#ffe76c"/><path d="m376 192a8 8 0 0 1 -8-8v-8a112.127 112.127 0 0 0 -112-112h-8a8 8 0 0 1 0-16h8a128.145 128.145 0 0 1 128 128v8a8 8 0 0 1 -8 8z" fill="#ffb632"/><path d="m288 232a24.027 24.027 0 0 0 -24 24v8h-16v-8a24 24 0 1 0 -24 24h8v72a8 8 0 0 0 8 8h32a8 8 0 0 0 8-8v-72h8a24 24 0 0 0 0-48zm-72 24a8 8 0 0 1 16 0v8h-8a8.009 8.009 0 0 1 -8-8zm48 88h-16v-64h16zm24-80h-8v-8a8 8 0 1 1 8 8z" fill="#ffb632"/><path d="m320 408h-128a16 16 0 0 1 -16-16 16 16 0 0 1 16-16h128a16 16 0 0 1 16 16 16 16 0 0 1 -16 16z" fill="#dadcde"/><path d="m320 440h-128a16 16 0 0 1 -16-16 16 16 0 0 1 16-16h128a16 16 0 0 1 16 16 16 16 0 0 1 -16 16z" fill="#e9eef2"/><path d="m192 440h128a0 0 0 0 1 0 0v16a32 32 0 0 1 -32 32h-64a32 32 0 0 1 -32-32v-16a0 0 0 0 1 0 0z" fill="#dadcde"/><path d="m320 376h-128a16 16 0 0 1 -16-16 16 16 0 0 1 16-16h128a16 16 0 0 1 16 16 16 16 0 0 1 -16 16z" fill="#e9eef2"/></svg>