<svg id="Capa_1" enable-background="new 0 0 512 512" height="512" viewBox="0 0 512 512" width="512" xmlns="http://www.w3.org/2000/svg"><g><path d="m256 512c-68.38 0-132.667-26.629-181.02-74.98-48.351-48.353-74.98-112.64-74.98-181.02s26.629-132.667 74.98-181.02c48.353-48.351 112.64-74.98 181.02-74.98s132.667 26.629 181.02 74.98c48.351 48.353 74.98 112.64 74.98 181.02s-26.629 132.667-74.98 181.02c-48.353 48.351-112.64 74.98-181.02 74.98z" fill="#fff17d"/><path d="m256 0v512c68.38 0 132.667-26.629 181.02-74.98 48.351-48.353 74.98-112.64 74.98-181.02s-26.629-132.667-74.98-181.02c-48.353-48.351-112.64-74.98-181.02-74.98z" fill="#ffc178"/><path d="m256 441c52.899 0 98.78-30.587 120.909-75l-120.909-30-120.909 30c22.129 44.413 68.01 75 120.909 75z" fill="#ff8493"/><path d="m376.909 366-120.909-30v105c52.899 0 98.78-30.587 120.909-75z" fill="#ff405c"/><path d="m376 291h-240c-8.284 0-15 6.716-15 15 0 21.541 5.08 41.915 14.091 60h241.818c9.011-18.085 14.091-38.459 14.091-60 0-8.284-6.716-15-15-15z" fill="#f9f9f9"/><path d="m376 291h-120v75h120.909c9.011-18.085 14.091-38.459 14.091-60 0-8.284-6.716-15-15-15z" fill="#e2dff4"/><path d="m134 215c-4.971-6.627-3.627-16.029 3-21l24-18-24-18c-6.627-4.971-7.971-14.373-3-21 4.971-6.627 14.373-7.971 21-3l40 30c8 6 8 18 0 24l-40 30c-6.627 4.971-16.029 3.627-21-3z" fill="#453d83"/><path d="m357 218-40-30c-8-6-8-18 0-24l40-30c6.627-4.971 16.029-3.627 21 3 4.971 6.627 3.627 16.029-3 21l-24 18 24 18c6.627 4.971 7.971 14.373 3 21-4.971 6.627-14.373 7.971-21 3z" fill="#2d2755"/><path d="m37.503 340.476c-9.603 0-19.206-3.656-26.517-10.966-14.621-14.621-14.621-38.411 0-53.033 9.33-9.33 40.502-20.137 65.01-27.56 4.422-1.338 9.196-.143 12.46 3.122 3.266 3.265 4.462 8.04 3.124 12.461-7.423 24.508-18.231 55.681-27.561 65.01-7.309 7.31-16.912 10.966-26.516 10.966z" fill="#acceff"/><path d="m474.497 340.476c-9.603 0-19.206-3.656-26.517-10.966-9.33-9.33-20.137-40.502-27.56-65.01-1.339-4.422-.143-9.197 3.123-12.461 3.265-3.265 8.04-4.461 12.46-3.122 24.507 7.423 55.68 18.23 65.01 27.56 14.621 14.622 14.621 38.412 0 53.033-7.31 7.31-16.913 10.966-26.516 10.966z" fill="#7d81e7"/></g></svg>