<svg height="480pt" viewBox="-76 0 480 480" width="480pt" xmlns="http://www.w3.org/2000/svg"><path d="m168 184h-48c-13.253906 0-24 10.746094-24 24 0 56 48 104 48 104s16 16 32 16h96c24 0 32-8 40-32 4.761719-18.304688 7.445312-37.09375 8-56v-56zm0 0" fill="#aeddd0"/><path d="m248 128c13.253906 0 24 10.746094 24 24v64c0 13.253906-10.746094 24-24 24s-24-10.746094-24-24v-64c0-13.253906 10.746094-24 24-24zm0 0" fill="#afd6ae"/><path d="m296 128c13.253906 0 24 10.746094 24 24v64c0 13.253906-10.746094 24-24 24s-24-10.746094-24-24v-64c0-13.253906 10.746094-24 24-24zm0 0" fill="#9bc499"/><path d="m200 128c13.253906 0 24 10.746094 24 24v64c0 13.253906-10.746094 24-24 24s-24-10.746094-24-24v-64c0-13.253906 10.746094-24 24-24zm0 0" fill="#9bc499"/><path d="m240 96h-64c-4.417969 0-8-3.582031-8-8s3.582031-8 8-8h64c4.417969 0 8 3.582031 8 8s-3.582031 8-8 8zm0 0" fill="#aabece"/><path d="m152 8c13.253906 0 24 10.746094 24 24v152h-48v-152c0-13.253906 10.746094-24 24-24zm0 0" fill="#aeddd0"/><path d="m176 328h96v48h-96zm0 0" fill="#9bc499"/><path d="m208 288h-16c0-40.761719-39.625-47.832031-41.3125-48.113281l2.625-15.773438c31.484375 4.902344 54.699219 32.019531 54.6875 63.886719zm0 0" fill="#9bc499"/><path d="m152 376h144v96h-144zm0 0" fill="#5c067c"/><path d="m128 48h48v80h-48zm0 0" fill="#5c067c"/><path d="m88 80h64v16h-64zm0 0" fill="#aabece"/><path d="m96 88c0-13.253906-7.164062-24-16-24s-16 10.746094-16 24 7.164062 24 16 24 16-10.746094 16-24zm0 0" fill="#79939b"/><g fill="#fcf05a"><path d="m0 80h32v16h-32zm0 0"/><path d="m19.5625 129.347656 24.003906-16.003906 8.875 13.316406-24 16zm0 0"/><path d="m19.558594 46.652344 8.878906-13.3125 24 16.003906-8.875 13.3125zm0 0"/></g><path d="m136 232h32c13.253906 0 24-10.746094 24-24s-10.746094-24-24-24h-48c-13.253906 0-24 10.746094-24 24 0 56 48 104 48 104" fill="#afd6ae"/><path d="m319.59375 298.527344c5.050781-19.117188 7.875-38.757813 8.40625-58.527344v-88c.058594-13.34375-8.203125-25.3125-20.703125-29.984375-12.496094-4.675781-26.585937-1.066406-35.296875 9.039063-6-7.015626-14.769531-11.054688-24-11.054688s-18 4.039062-24 11.054688c-.480469-.542969-.863281-1.152344-1.382812-1.671876-10.207032-10.328124-26.140626-12.367187-38.617188-4.933593v-28.449219h56c4.417969 0 8-3.582031 8-8s-3.582031-8-8-8h-56v-48c0-17.671875-14.328125-32-32-32s-32 14.328125-32 32v48h-16.800781c-2.605469-13.929688-11.816407-24-23.199219-24-13.464844 0-24 14.054688-24 32s10.535156 32 24 32c11.367188 0 20.574219-10.070312 23.199219-24h16.800781v80c-17.671875 0-32 14.328125-32 32 0 58.640625 48.289062 107.601562 50.34375 109.65625 8.285156 8.15625 18.480469 14.113281 29.65625 17.328125v33.015625h-24v112h160v-112h-24v-32.390625c23.464844-2.203125 32.105469-14.625 39.59375-37.082031zm-239.59375-194.527344c-3.265625 0-8-6.230469-8-16s4.734375-16 8-16 8 6.230469 8 16-4.734375 16-8 16zm216 32c8.835938 0 16 7.164062 16 16v64c0 8.835938-7.164062 16-16 16s-16-7.164062-16-16v-64c0-8.835938 7.164062-16 16-16zm-48 0c8.835938 0 16 7.164062 16 16v64c0 8.835938-7.164062 16-16 16s-16-7.164062-16-16v-64c0-8.835938 7.164062-16 16-16zm-48 0c8.835938 0 16 7.164062 16 16v64c0 8.835938-7.164062 16-16 16-2.996094-.023438-5.925781-.894531-8.449219-2.511719 6.574219-7.089843 9.550781-16.792969 8.078125-26.347656-1.46875-9.550781-7.226562-17.910156-15.628906-22.691406v-28.449219c0-8.835938 7.164062-16 16-16zm-64-104c0-8.835938 7.164062-16 16-16s16 7.164062 16 16v8h-32zm0 48v-24h32v64h-32v-24h16v-16zm0 56h32v40h-32zm-32 72c0-8.835938 7.164062-16 16-16h48c8.835938 0 16 7.164062 16 16s-7.164062 16-16 16h-32v16h15.273438c4.984374.96875 40.726562 9.246094 40.726562 48h16c.34375-14.828125-4.703125-29.273438-14.199219-40.664062 11.210938 2.355468 22.808594-1.636719 30.199219-10.390626 6 7.015626 14.769531 11.054688 24 11.054688s18-4.039062 24-11.054688c9.890625 11.652344 26.746094 14.464844 39.886719 6.664063-.753907 16.835937-3.257813 33.546875-7.472657 49.863281-7.269531 21.816406-13.03125 26.527344-32.414062 26.527344h-96c-10.027344-1.582031-19.273438-6.375-26.34375-13.65625-.457031-.464844-45.65625-46.253906-45.65625-98.34375zm184 176v80h-128v-80zm-104-16v-32h80v32zm0 0"/><path d="m0 80h32v16h-32zm0 0"/><path d="m19.5625 129.347656 24.003906-16.003906 8.875 13.316406-24 16zm0 0"/><path d="m19.558594 46.652344 8.878906-13.3125 24 16.003906-8.875 13.3125zm0 0"/></svg>