<svg id="Capa_1" enable-background="new 0 0 497 497" height="512" viewBox="0 0 497 497" width="512" xmlns="http://www.w3.org/2000/svg"><g><path d="m497 248.5c0 78.385-36.292 148.293-92.989 193.838-42.574 34.199-99.769 42.524-158.627 42.524-137.243 0-223.117-99.119-223.117-236.362 0-75.602 11.495-143.318 64.763-188.896 43.43-37.161 99.829-59.604 161.47-59.604 137.243 0 248.5 111.257 248.5 248.5z" fill="#ffd764"/><path d="m319.5 212c0 38.38-31.12 69.5-69.5 69.5-22.845 0-36.427-13.147-49.096-30.167-8.615-11.574-20.404-23.798-20.404-39.333l66.362-11.564z" fill="#fcf7ed"/><path d="m492.5 212c0 38.38-31.12 69.5-69.5 69.5-22.517 0-37.139-13.562-49.84-30.167-8.948-11.698-19.66-23.47-19.66-39.333l69.5-19.734z" fill="#fcf7ed"/><path d="m278.62 275.35c-8.73 3.95-18.42 6.15-28.62 6.15-38.38 0-69.5-31.12-69.5-69.5l9.511-7.819 6.669 7.819c2.56 36.05 32.62 64.5 69.32 64.5 4.31 0 8.53-.39 12.62-1.15z" fill="#f7e5c1"/><path d="m451.62 275.35c-8.73 3.95-18.42 6.15-28.62 6.15-38.38 0-69.5-31.12-69.5-69.5l7.445-4.67 8.734 4.67c2.56 36.05 32.62 64.5 69.32 64.5 4.311 0 8.531-.39 12.621-1.15z" fill="#f7e5c1"/><path d="m265.323 242.646c2.268 0 4.443.39 6.47 1.097.622.217 1.316.146 1.842-.25 9.564-7.195 15.766-18.63 15.766-31.493l-56.838-14.287-15.83 12.596c0 21.022 10.416 39.931 31.169 41.025.657.035 1.273-.293 1.669-.819 3.596-4.778 9.312-7.869 15.752-7.869z" fill="#8c818f"/><path d="m438.323 242.646c2.268 0 4.443.39 6.47 1.097.622.217 1.316.146 1.842-.25 9.564-7.195 15.766-18.63 15.766-31.493l-54.093-12.84-18.383 16.851c0 21.022 10.224 34.228 30.978 35.323.657.035 1.273-.293 1.669-.819 3.595-4.778 9.311-7.869 15.751-7.869z" fill="#8c818f"/><path d="m248.87 251.11c-.29.16-.63.24-.97.22-20.75-1.09-37.3-18.31-37.3-39.33l8.177-4.67 6.823 4.67c0 17.39 9.57 32.4 23.27 39.11z" fill="#766d78"/><path d="m421.87 251.11c-.29.16-.63.24-.97.22-20.75-1.09-37.3-18.31-37.3-39.33l6.326-4.67 8.674 4.67c0 17.39 9.57 32.4 23.27 39.11z" fill="#766d78"/><g><g><path d="m390.17 340.5h-107.34c-4.143 0-7.5-3.358-7.5-7.5s3.357-7.5 7.5-7.5h107.34c4.143 0 7.5 3.358 7.5 7.5s-3.357 7.5-7.5 7.5z" fill="#ffaa4d"/></g></g><path d="m469.521 98.311-91.725 5.604c-9.911.605-17.454 9.131-16.849 19.042.562 9.2 20.76 12.899 29.744 13.395l68.17 3.7c10.707.603 30.906-1.175 34.207-10.851.672-1.971 1.09-4.065 1.213-6.247.725-12.888-9.134-23.924-22.022-24.649-.876-.05-1.88-.04-2.738.006z" fill="#b36d3c"/><path d="m203.479 98.311 91.725 5.604c9.911.605 17.454 9.131 16.849 19.042-.562 9.2-17.568 13.154-26.552 13.65l-74.902 3.55c-11.938.672-29.518-2.918-31.555-14.404-.162-.914-.272-1.848-.325-2.798-.725-12.888 9.134-23.924 22.022-24.649.876-.051 1.88-.041 2.738.005z" fill="#b36d3c"/><path d="m493.69 127.011c-2.54 10.84-12.56 18.61-24.06 17.96l-91.75-5.16c-8.98-.5-16.37-7.65-16.93-16.85 0-.05-.01-.11 0-.16.3.02.6.04.9.05l121.29 5.09c3.67.15 7.22-.18 10.55-.93z" fill="#995e34"/><path d="m312.07 122.201c0 .25-.01.5-.02.76-.56 9.2-7.95 16.35-16.93 16.85l-91.75 5.16c-11.94.68-22.29-7.73-24.32-19.22 4.25 1.61 9.04 2.43 14.06 2.2l114.18-5.11c1.64-.07 3.24-.29 4.78-.64z" fill="#995e34"/><g><g><path d="m357.639 397.303c-.798 0-1.608-.128-2.405-.398-5.185-1.755-10.641-2.645-16.217-2.645h-5.033c-5.576 0-11.032.89-16.217 2.645-3.924 1.331-8.181-.776-9.509-4.699-1.327-3.924.776-8.181 4.7-9.509 6.736-2.28 13.811-3.437 21.025-3.437h5.033c7.215 0 14.289 1.156 21.025 3.437 3.924 1.328 6.027 5.585 4.7 9.509-1.057 3.126-3.975 5.097-7.102 5.097z" fill="#ffaa4d"/></g></g><g fill="#ffaa4d"><path d="m416.75 431.38c-44.27 40.74-103.35 65.62-168.25 65.62-131.55 0-239.22-102.22-247.93-231.56-.38-5.6-.57-11.25-.57-16.94 0-16.05 1.52-31.74 4.43-46.94 11.533-60.322 44.873-112.902 91.503-149.217 7.752-6.037 15.87-11.624 24.317-16.723-49.34 45.42-80.25 110.54-80.25 182.88 0 137.24 111.26 248.5 248.5 248.5 46.92 0 90.81-13.01 128.25-35.62z"/><path d="m492.5 212h-139c0-14.963 10.592-25.073 18.638-36.415 12.593-17.75 27.445-33.085 50.862-33.085 38.38 0 69.5 31.12 69.5 69.5z"/><path d="m319.5 212h-139c0-14.958 6.916-22.835 14.957-34.175 12.592-17.757 31.121-35.325 54.543-35.325 38.38 0 69.5 31.12 69.5 69.5z"/></g><path d="m369.5 207c0 1.68.06 3.35.18 5h-16.18c0-34.07 24.52-62.42 56.88-68.35-24.11 10.91-40.88 35.17-40.88 63.35z" fill="#e69642"/><path d="m196.5 207c0 1.68.06 3.35.18 5h-16.18c0-34.07 24.52-62.42 56.88-68.35-24.11 10.91-40.88 35.17-40.88 63.35z" fill="#e69642"/></g></svg>