<svg id="Capa_1" enable-background="new 0 0 512 512" height="512" viewBox="0 0 512 512" width="512" xmlns="http://www.w3.org/2000/svg"><g><path d="m170 497.196c-99.081-35.331-170-129.981-170-241.196 0-141.385 114.615-256 256-256s256 114.615 256 256c0 111.215-70.919 205.865-170 241.196-4.324 1.542-60.684-6.238-86-6.238s-81.676 7.78-86 6.238z" fill="#1380e2"/><path d="m471.681 256c0 119.117-96.564 215.681-215.681 215.681s-215.681-96.564-215.681-215.681 96.564-215.681 215.681-215.681 215.681 96.564 215.681 215.681z" fill="#3493f8"/><path d="m378.5 132.489c0 18.235-6.83 33.509-16 37.489-9.17-3.98-16-19.254-16-37.489s6.83-33.509 16-37.489c9.17 3.98 16 19.254 16 37.489zm-269.843 94.541c-5.668-20.497-18.093-35.543-29.637-37.166-.362.292-.714.604-1.057.934-1.746 8.804-1.254 19.834 1.9 31.237 5.668 20.497 18.092 35.543 29.637 37.166.362-.292.714-.604 1.057-.934 1.745-8.804 1.253-19.834-1.9-31.237zm143.843-227.03c-9.17 3.98-16 19.254-16 37.489s6.83 33.509 16 37.489c9.17-3.98 16-19.254 16-37.489s-6.83-33.509-16-37.489zm-56 23.989c-9.17 3.98-16 19.254-16 37.489s6.83 33.509 16 37.489c9.17-3.98 16-19.254 16-37.489s-6.83-33.509-16-37.489zm110 10.011c-9.17 3.98-16 19.254-16 37.489s6.83 33.509 16 37.489c9.17-3.98 16-19.254 16-37.489s-6.83-33.509-16-37.489z" fill="#1c314e"/><path d="m380.159 158.53c-2.318 5.092-2.118 10.895-.058 16.097.903 2.279 1.399 4.763 1.399 7.362v23c0 2.391-.419 4.684-1.189 6.809-1.802 4.977-1.853 10.428.02 15.378.995 2.63 1.262 5.57.612 8.521l-21.326 96.785c-1.16 5.264-16.132 29.013-22.158 35.58-13.062 14.234-19.958 33.064-19.958 52.383v59.544h-130v-59.852c0-18.162-6.514-35.552-17.895-49.607-.915-.875-59.842-83.87-59.842-83.87-2.252-3.18-3.444-6.791-3.648-10.414-.322-5.71-3.13-10.908-7.155-14.971-1.676-1.692-2.973-3.809-3.703-6.251l-12.408-41.481c-1.756-5.873 1.637-12.033 7.516-13.767 15.295-4.511 31.371 4.193 35.945 19.485l7.268 24.302c.327 1.093.523 2.193.598 3.285.369 5.379 2.568 10.484 6.306 14.369.689.716 1.333 1.492 1.924 2.327l13.53 19.107.098.138c5.893 8.322 19.08 4.975 20.093-5.173.011-.109.021-.219.03-.329 1.175-14.051.341-30.118.341-30.118v-68.181c0-1.966.378-3.844 1.066-5.564 1.545-3.865 1.892-8.165.35-12.031-.914-2.29-1.416-4.789-1.416-7.405v-29.333c0-2.798.575-5.462 1.612-7.88 1.717-4.001 1.333-8.519-.392-12.517-.785-1.821-1.22-3.828-1.22-5.936v-34.333c0-11.288 9.351-20.391 20.729-19.987 10.838.385 19.271 9.622 19.271 20.466v33.854c0 2.109-.435 4.116-1.22 5.936-1.725 3.998-2.108 8.516-.392 12.517 1.037 2.418 1.612 5.082 1.612 7.88v29.333c0 2.616-.502 5.115-1.416 7.405-1.542 3.866-1.195 8.166.35 12.031.688 1.721 1.066 3.598 1.066 5.564v55.619c3.276-.408 6.613-.619 10-.619h6v-75c0-1.966.378-3.844 1.066-5.564 1.545-3.865 1.892-8.165.35-12.031-.914-2.29-1.416-4.789-1.416-7.405v-29.333c0-2.798.575-5.462 1.612-7.88 1.717-4.001 1.333-8.519-.392-12.517-.785-1.821-1.22-3.828-1.22-5.936v-34.333c0-11.288 9.351-20.391 20.729-19.987 10.838.385 19.271 9.622 19.271 20.466v33.854c0 2.109-.435 4.116-1.22 5.936-1.725 3.998-2.108 8.516-.392 12.517 1.037 2.418 1.612 5.082 1.612 7.88v29.333c0 2.616-.502 5.115-1.416 7.405-1.542 3.866-1.195 8.166.35 12.031.688 1.721 1.066 3.598 1.066 5.564v75h6c2.7 0 5.368.134 8 .395v-45.395c0-1.966.378-3.844 1.066-5.564 1.545-3.865 1.892-8.165.35-12.031-.914-2.29-1.416-4.789-1.416-7.405v-29.333c0-2.798.575-5.462 1.612-7.88 1.717-4.001 1.333-8.519-.392-12.517-.785-1.821-1.22-3.828-1.22-5.936v-34.333c0-11.288 9.351-20.391 20.729-19.987 10.838.385 19.271 9.622 19.271 20.466v33.854c0 2.109-.435 4.116-1.22 5.936-1.725 3.998-2.108 8.516-.392 12.517 1.037 2.418 1.612 5.082 1.612 7.88v29.333c0 2.616-.502 5.115-1.416 7.405-1.542 3.866-1.195 8.166.35 12.031.688 1.721 1.066 3.598 1.066 5.564v60.994c3.07 2.306 5.969 4.827 8.673 7.542l6.706-30.435c.15-.681.344-1.341.579-1.977 1.614-4.381 1.614-9.249.107-13.668-.691-2.026-1.065-4.197-1.065-6.457v-23c0-2.6.496-5.084 1.399-7.362 2.06-5.202 2.259-11.005-.058-16.097-.861-1.892-1.341-3.993-1.341-6.207v-16.333c0-11.288 9.351-20.391 20.729-19.987 10.838.385 19.271 9.622 19.271 20.466v15.854c.001 2.215-.479 4.317-1.34 6.209z" fill="#faa68e"/><path d="m187.5 479.989v-59.852c0-18.162-6.514-35.552-17.895-49.607-.915-.875-9.053-12.146-9.053-12.146l-50.789-71.724c-2.252-3.18-3.444-6.791-3.648-10.414-.322-5.71-3.131-10.908-7.156-14.971-1.676-1.692-2.973-3.81-3.703-6.251l-12.406-41.481c-1.756-5.873 1.637-12.033 7.516-13.767 4.022-1.186 8.099-1.458 12.005-.937-1.286 2.455-1.655 5.389-.798 8.255l12.407 41.481c.73 2.441 2.027 4.559 3.703 6.251 4.025 4.063 6.834 9.261 7.156 14.971.204 3.623 1.396 7.234 3.648 10.414 0 0 58.926 82.996 59.842 83.87 11.381 14.055 17.895 31.445 17.895 49.607v59.852z" fill="#e09380"/><path d="m326.5 74.469v33.854c0 2.109-.435 4.116-1.22 5.936-1.725 3.998-2.108 8.516-.392 12.518 1.037 2.418 1.612 5.082 1.612 7.879v29.333c0 2.616-.502 5.115-1.416 7.405-1.542 3.866-1.195 8.166.35 12.031.688 1.72 1.066 3.598 1.066 5.564v61c0 .345-.012.687-.035 1.026-.895 13.25-21.035 13.25-21.931 0-.023-.339-.035-.681-.035-1.026v-61c0-1.966.378-3.844 1.066-5.564 1.545-3.865 1.892-8.165.35-12.031-.914-2.29-1.416-4.789-1.416-7.405v-29.333c0-2.798.575-5.461 1.612-7.879 1.717-4.002 1.333-8.52-.392-12.518-.785-1.821-1.22-3.828-1.22-5.936v-34.334c0-7.787 4.451-14.535 10.948-17.838 6.597 3.401 11.053 10.434 11.053 18.318zm-65.549-48.565c-6.769 3.205-11.451 10.099-11.451 18.085v34.333c0 2.109.435 4.116 1.22 5.936 1.725 3.998 2.108 8.516.392 12.518-1.037 2.418-1.612 5.082-1.612 7.879v29.333c0 2.616.502 5.115 1.416 7.405 1.542 3.866 1.195 8.166-.35 12.031-.688 1.72-1.066 3.598-1.066 5.564v73c0 .708.049 1.404.144 2.086 1.781 12.799 20.931 12.799 22.712 0 .095-.682.144-1.378.144-2.086v-73c0-1.966-.378-3.844-1.066-5.564-1.545-3.865-1.892-8.165-.35-12.031.914-2.29 1.416-4.789 1.416-7.405v-29.333c0-2.798-.575-5.461-1.612-7.879-1.717-4.002-1.333-8.52.392-12.518.785-1.821 1.22-3.828 1.22-5.936v-33.853c0-8.08-4.681-15.266-11.549-18.565zm-56 20c-6.769 3.205-11.451 10.099-11.451 18.085v34.333c0 2.109.435 4.116 1.22 5.936 1.725 3.998 2.108 8.516.392 12.518-1.037 2.418-1.612 5.082-1.612 7.879v29.333c0 2.616.502 5.115 1.416 7.405 1.542 3.866 1.195 8.166-.35 12.031-.688 1.72-1.066 3.598-1.066 5.564v59c0 .708.049 1.404.144 2.086 1.781 12.799 20.931 12.799 22.712 0 .095-.682.144-1.378.144-2.086v-59c0-1.966-.378-3.844-1.066-5.564-1.545-3.865-1.892-8.165-.35-12.031.914-2.29 1.416-4.789 1.416-7.405v-29.333c0-2.798-.575-5.461-1.612-7.879-1.717-4.002-1.333-8.52.392-12.518.785-1.821 1.22-3.828 1.22-5.936v-33.853c0-8.08-4.681-15.266-11.549-18.565zm176.549 106.419v-16.333c0-7.607-4.248-14.222-10.5-17.604-6.252 3.381-10.5 9.997-10.5 17.604v16.333c0 2.213.479 4.315 1.34 6.206 2.318 5.093 2.119 10.897.058 16.099-.902 2.278-1.398 4.762-1.398 7.362v23c0 2.247.371 4.408 1.054 6.424 1.502 4.433 1.523 9.31-.096 13.701-.234.636-.429 1.296-.579 1.977l-8.135 36.92c-1.26 5.719 2.301 11.39 7.999 12.741 5.827 1.381 11.656-2.278 12.944-8.126l7.255-32.927c.65-2.951.383-5.89-.612-8.52-1.872-4.952-1.821-10.404-.019-15.382.769-2.125 1.188-4.417 1.188-6.807v-23c0-2.599-.496-5.083-1.398-7.362-2.061-5.202-2.259-11.006.058-16.099.862-1.893 1.341-3.994 1.341-6.207z" fill="#ffbeaa"/><path d="m326.6 323.989c-10.241 23.906-35.751 40.841-65.6 40.841s-55.359-16.936-65.6-40.841c10.241-23.906 35.751-40.842 65.6-40.842s55.359 16.936 65.6 40.842z" fill="#fff"/><path d="m331.195 322.021c-11.416-26.651-38.97-43.873-70.195-43.873s-58.779 17.221-70.195 43.873c-.539 1.257-.539 2.68 0 3.938 11.416 26.651 38.97 43.873 70.195 43.873s58.779-17.221 70.195-43.873c.539-1.258.539-2.681 0-3.938zm-70.195 37.81c-26.016 0-49.877-14.317-60.114-35.841 10.237-21.524 34.099-35.841 60.114-35.841s49.877 14.317 60.114 35.841c-10.237 21.524-34.098 35.841-60.114 35.841z" fill="#d47f6c"/><path d="m280.2 323.989c0 10.604-8.596 19.2-19.2 19.2s-19.2-8.596-19.2-19.2 8.596-19.2 19.2-19.2 19.2 8.596 19.2 19.2z" fill="#232e7a"/><path d="m261 348.189c-13.344 0-24.2-10.856-24.2-24.2s10.856-24.2 24.2-24.2 24.2 10.856 24.2 24.2-10.856 24.2-24.2 24.2zm0-38.4c-7.83 0-14.2 6.37-14.2 14.2s6.37 14.2 14.2 14.2 14.2-6.37 14.2-14.2-6.37-14.2-14.2-14.2z" fill="#3d4ec6"/><path d="m271.628 307.5c4.142 0 7.5 3.358 7.5 7.5s-3.358 7.5-7.5 7.5-7.5-3.358-7.5-7.5 3.358-7.5 7.5-7.5z" fill="#8c96dd"/><path d="m342 470v27.196c-26.879 9.585-55.83 14.804-86 14.804s-59.121-5.219-86-14.804v-27.196c0-8.284 6.716-15 15-15h142c8.284 0 15 6.716 15 15z" fill="#922d72"/><path d="m272.653 511.467c-5.505.353-11.058.533-16.653.533-30.17 0-59.121-5.219-86-14.804v-27.196c0-8.284 6.716-15 15-15h33.307c-8.284 0-15 6.716-15 15 0 16.927 11.674 31.632 28.167 35.44 13.357 3.084 27.113 5.123 41.179 6.027z" fill="#852968"/><path d="m361 470h-210c-8.284 0-15-6.716-15-15 0-8.284 6.716-15 15-15h210c8.284 0 15 6.716 15 15 0 8.284-6.716 15-15 15z" fill="#ff2ea6"/><path d="m335.314 470h-92.014c-8.284 0-15-6.716-15-15 0-8.284 6.716-15 15-15h92.014c8.284 0 15 6.716 15 15 0 8.284-6.716 15-15 15z" fill="#ff50b5"/><path d="m443.062 137.655 5.618 11.825c.198.416.532.751.948.948l11.825 5.618c1.522.723 1.522 2.89 0 3.613l-11.825 5.618c-.416.198-.751.532-.948.948l-5.618 11.825c-.723 1.522-2.89 1.522-3.613 0l-5.618-11.825c-.198-.416-.532-.751-.948-.948l-11.825-5.618c-1.522-.723-1.522-2.89 0-3.613l11.825-5.618c.416-.198.751-.532.948-.948l5.618-11.825c.723-1.523 2.89-1.523 3.613 0zm-315.868-65.393-5.618 11.825c-.198.416-.532.751-.948.948l-11.825 5.618c-1.522.723-1.522 2.89 0 3.613l11.825 5.618c.416.198.751.532.948.948l5.618 11.825c.723 1.522 2.89 1.522 3.613 0l5.618-11.825c.198-.416.532-.751.948-.948l11.825-5.618c1.522-.723 1.522-2.89 0-3.613l-11.825-5.618c-.416-.198-.751-.532-.948-.948l-5.618-11.825c-.724-1.522-2.89-1.522-3.613 0z" fill="#ffc14f"/><path d="m350.806 178.802 5.618 11.825c.198.416.532.751.948.948l11.825 5.618c1.522.723 1.522 2.89 0 3.613l-11.825 5.618c-.416.198-.751.532-.948.948l-5.618 11.825c-.723 1.522-2.89 1.522-3.613 0l-5.618-11.825c-.198-.416-.532-.751-.948-.948l-11.825-5.618c-1.522-.723-1.522-2.89 0-3.613l11.825-5.618c.416-.198.751-.532.948-.948l5.618-11.825c.724-1.522 2.89-1.522 3.613 0zm-298.464 120.329-5.618 11.825c-.198.416-.532.751-.948.948l-11.825 5.618c-1.522.723-1.522 2.89 0 3.613l11.825 5.618c.416.198.751.532.948.948l5.618 11.825c.723 1.522 2.89 1.522 3.613 0l5.618-11.825c.198-.416.532-.751.948-.948l11.825-5.618c1.522-.723 1.522-2.89 0-3.613l-11.825-5.618c-.416-.198-.751-.532-.948-.948l-5.618-11.825c-.723-1.522-2.889-1.522-3.613 0zm323.852-58.329-9.161 19.282c-.198.416-.532.751-.948.948l-19.282 9.161c-1.522.723-1.522 2.89 0 3.613l19.282 9.161c.416.198.751.532.948.948l9.161 19.282c.723 1.522 2.89 1.522 3.613 0l9.161-19.282c.198-.416.532-.751.948-.948l19.282-9.161c1.522-.723 1.522-2.89 0-3.613l-19.282-9.161c-.416-.198-.751-.532-.948-.948l-9.161-19.282c-.724-1.522-2.89-1.522-3.613 0z" fill="#fff5f5"/></g></svg>