<svg id="Capa_1" enable-background="new 0 0 512 512" height="512" viewBox="0 0 512 512" width="512" xmlns="http://www.w3.org/2000/svg"><g><g><path d="m376.237 512s40.461-20.27 45.058-52.76c4.598-32.491-21.104-50.213-21.104-50.213s52.012-16.649 46.717-88.753-53.489-83.76-53.489-83.76 19.675-95.977-75.758-56.478c0 0 24.026-129.29-67.761-87.141l-24.771 231.253z" fill="#bdf4e3"/><path d="m421.295 459.24c4.598-32.49-21.104-50.212-21.104-50.212s52.012-16.649 46.717-88.753c-.957-13.025-3.318-24.068-6.537-33.436-1.838-4.296-3.527-8.193-4.659-11.321-.143-.294-.284-.593-.429-.883 3.703 107.518-74.991 144.764-143.694 76.48-3.027-3.009-15.021 20.589-21.944 28.375l106.592 132.51s40.461-20.269 45.058-52.76z" fill="#b1b7e3"/><path d="m376.237 512c-15.701-42.281-40.484-75.326-69.201-96.962l-.01.248c11.635-16.487 20.708-35.253 29.157-65.167l17.908-59.209c6.016-21.3 5.137-42.915-1.305-62.465 6.545-3.737 12.815-9.499 18.341-17.461 16.828-24.249 10.496-66.47 2.945-71.71s-49.319 3.599-66.148 27.848c-.665.958-1.284 1.915-1.883 2.87-7.903-4.718-16.546-8.493-25.826-11.114l-63.536-17.945c-4.745-1.34-9.405-2.266-13.973-2.838.999-6.022.967-12.765-.317-20.138-5.011-28.775-38.827-54.102-47.787-52.542-8.96 1.561-32.225 36.826-27.214 65.601 1.658 9.521 4.924 17.351 9.294 23.452-14.773 9.526-26.109 21.318-32.853 30.684-16.274 22.602-30.555 55.656-30.555 55.656-31.409 16.35-48.33 46.081-46.253 76.683 1.713 25.251 13.132 46.634 31.529 63.746 16.171 15.04 45.876 27.184 63.094 30.469l2.643 1.274c-10.077 33.454-16.525 76.58-16.478 99.02" fill="#e7effa"/><path d="m266.301 183.872c.101-.466.181-.941.217-1.433 4.594-17.994 3.715-35.001-5.153-50.567 5.549-20.016 4.82-37.078-5.094-49.988.103-23.902-2.87-50.307-7.996-78.465-.432-4.235-6.432-4.673-7.474-.545-8.008 21.637-14.137 42.125-14.985 59.382-9.188 11.545-13.159 24.737-10.138 40.172-8.21 11.994-12.45 25.717-10.596 41.989-10.552 12.038-9.47 26.189-9.5 32.732 1.21 22.345 66.255 27.406 70.719 6.723z" fill="#ffe266"/><path d="m266.301 183.872c.101-.466.181-.941.217-1.433 3.263-12.779 3.745-25.057.586-36.677-.363 3.437-.992 6.917-1.888 10.443-.028.421-.095.826-.18 1.224-3.769 17.66-60.923 12.854-62.149-6.268-.004-1.08-.046-2.406-.046-3.911-8.141 11.353-7.23 23.862-7.258 29.898 1.209 22.346 66.254 27.407 70.718 6.724z" fill="#efaa66"/><g><g><path d="m256.516 92.047c-1.267 0-2.545-.376-3.661-1.159l-31.159-21.869c-2.884-2.024-3.581-6.004-1.557-8.888 2.026-2.883 6.007-3.581 8.888-1.557l31.159 21.869c2.884 2.024 3.581 6.003 1.557 8.888-1.241 1.769-3.218 2.716-5.227 2.716z" fill="#d0844b"/></g><g><path d="m260.471 140.04c-1.26 0-2.532-.373-3.644-1.147l-44.798-31.23c-2.89-2.015-3.6-5.992-1.585-8.883 2.015-2.89 5.992-3.599 8.883-1.585l44.798 31.23c2.89 2.015 3.6 5.992 1.585 8.883-1.24 1.779-3.223 2.732-5.239 2.732z" fill="#d0844b"/></g><g><path d="m266.295 190.253c-1.184 0-2.381-.329-3.45-1.019l-61.219-39.455c-2.963-1.909-3.816-5.857-1.907-8.819 1.908-2.962 5.857-3.817 8.819-1.907l61.219 39.455c2.963 1.909 3.816 5.857 1.907 8.819-1.22 1.894-3.273 2.926-5.369 2.926z" fill="#d0844b"/></g></g><path d="m106.12 157.566c16.648-4.034 31.06-14.048 41.391-27.711 2.935-3.881 6.5-7.409 10.685-10.435 19.989-14.45 47.978-11.984 65.115 5.755 20.439 21.157 18.305 54.785-3.884 73.266-19.104 15.911-42.93 17.885-62.54 11.436-11.424-3.757-35.932-18.67-54.402-30.465-8.94-5.71-6.675-19.348 3.635-21.846z" fill="#bdf4e3"/><path d="m223.312 125.175c-17.137-17.738-45.126-20.204-65.115-5.755-4.185 3.025-7.751 6.554-10.685 10.435-10.332 13.663-24.744 23.677-41.392 27.711-10.31 2.498-12.575 16.136-3.634 21.846 18.47 11.795 42.977 26.707 54.402 30.465 19.611 6.449 43.436 4.475 62.54-11.436 22.189-18.481 24.323-52.109 3.884-73.266zm-11.174 46.183c-11.282 13.908-28.035 18.47-43.036 16.449-8.739-1.177-28.514-8.604-43.501-14.6-7.255-2.902-7.681-12.958-.678-16.108 11.307-5.087 20.117-14.156 25.459-25.296 1.517-3.165 3.539-6.16 6.08-8.878 12.134-12.979 32.533-14.916 47.458-4.492 17.802 12.433 21.322 36.77 8.218 52.925z" fill="#b1b7e3"/><g><path d="m165.961 159.042c-2.601 0-5.209-.949-7.263-2.869-4.306-4.026-4.234-11.048-.203-15.349 6.024-6.427 12.358-10.24 17.843-12.499 7.081-2.915 14.838 2.326 14.734 9.983-.057 4.243-2.615 8.069-6.542 9.68-3.127 1.283-7.009 3.565-10.743 7.622-2.096 2.277-4.956 3.432-7.826 3.432z" fill="#fff"/></g><path d="m374.071 139.274c-3.541-2.457-14.609-1.818-27.1 2.055 3.283 14.745 2.95 49.233-11.225 67.481-5.716 7.359-11.786 12.576-17.832 15.843 2.994 19.014.991 39.742-6.84 59.842l-22.777 55.816c-7.307 18.757-14.223 32.79-21.562 44.562-6.007 9.635-5.611 21.927 1.155 31.045 9.251 12.468 17.239 27.231 23.531 44.044 6.589 17.608-7.009 36.2-25.78 35.158l-156.685-3.45c-1.122 9.841-1.156 13.563-1.147 20.33h268.428c-15.681-42.229-40.423-75.243-69.095-96.881 11.579-16.446 20.62-35.186 29.04-65l17.908-59.209c6.016-21.3 5.137-42.914-1.305-62.465 6.545-3.737 12.815-9.499 18.341-17.461 16.829-24.248 10.496-66.47 2.945-71.71z" fill="#dcb6f5"/><path d="m224.867 411.224c36.179-1.549 61.583 20.497 62.838 49.793-4.701-.578-45.315 11.408-49.138 13.13-6.338 2.856 1.843-9.564-17.607-12.355-9.776-1.403-47.935 21.17-58.36-5.552-10.424-26.722 26.088-43.466 62.267-45.016z" fill="#e7effa"/><g><path d="m294.237 474.014c-3.206 0-5.968-2.411-6.333-5.673-2.897-25.938-30.369-45.967-61.26-44.641-6.734.289-15.583 1.651-24.278 3.737-3.433.824-6.872-1.291-7.693-4.715-.823-3.427 1.289-6.872 4.715-7.693 4.475-1.074 16.034-3.62 26.71-4.078 37.447-1.617 70.861 23.506 74.488 55.973.391 3.502-2.131 6.658-5.633 7.049-.24.028-.479.041-.716.041z" fill="#ad99c9"/></g><g><path d="m239.048 492.127c-2.667 0-5.148-1.68-6.038-4.351-.09-.272-.229-.737-.409-1.365-4.624-16.005-9.797-21.462-13.323-23.222-2.018-1.006-4.12-1.032-6.618-.082-3.294 1.252-6.979-.402-8.232-3.696-1.252-3.294.402-6.978 3.696-8.232 5.817-2.213 11.645-2.008 16.854.593 12.735 6.357 18.115 24.978 19.883 31.097.114.396.198.694.258.876 1.092 3.343-.721 6.955-4.06 8.056-.668.221-1.345.326-2.011.326z" fill="#ad99c9"/></g><path d="m199.616 414.858c-25.645 6.467-44.958 21.022-37.016 41.382 8.631 22.124 36.273 10.458 51.078 6.585-4.639-16.008-8.724-32.177-14.062-47.967z" fill="#78eac4"/><g><path d="m151.3 320.735c-2.214 0-4.365-1.153-5.543-3.211-1.233-2.154-3.489-3.466-6.014-3.399-2.068.049-3.972 1.024-5.224 2.676-2.127 2.81-6.13 3.363-8.938 1.235-2.809-2.128-3.363-6.129-1.235-8.938 3.615-4.774 9.119-7.591 15.102-7.729 7.147-.204 13.821 3.595 17.383 9.815 1.751 3.058.692 6.957-2.367 8.708-1 .571-2.089.843-3.164.843z" fill="#ad99c9"/></g><g><g><path d="m259.659 286.188c-.793 0-1.6-.15-2.382-.464l-187.33-75.466c-3.268-1.317-4.851-5.034-3.534-8.303 1.317-3.268 5.03-4.851 8.303-3.534l187.33 75.466c3.268 1.317 4.851 5.034 3.534 8.303-1.003 2.487-3.395 3.998-5.921 3.998z" fill="#ad99c9"/></g><g fill="#ad99c9"><path d="m153.706 236.772c-10.343 25.626-38.351 38.481-62.556 28.711s-34.925-38.255-24.582-63.881z"/><path d="m265.665 281.961c-10.343 25.626-40.897 37.453-68.951 26.13s-42.411-41.276-32.068-66.902z"/></g></g><g><path d="m80.205 244.12c-3.012 0-5.691-2.141-6.264-5.209-.648-3.464 1.636-6.797 5.099-7.444l43.427-8.117c3.475-.654 6.797 1.636 7.444 5.099.648 3.464-1.636 6.797-5.099 7.444l-43.427 8.117c-.397.075-.792.11-1.18.11z" fill="#fff"/></g><g><path d="m179.235 284.504c-3.012 0-5.691-2.141-6.264-5.209-.648-3.464 1.636-6.797 5.099-7.444l43.427-8.117c3.476-.651 6.797 1.636 7.444 5.099.648 3.464-1.636 6.797-5.099 7.444l-43.427 8.117c-.397.074-.792.11-1.18.11z" fill="#fff"/></g></g><path d="m472.877 60.154 8.735 24.562c.374 1.052 1.114 1.885 2.049 2.306l21.822 9.832c3.083 1.389 3.083 6.301 0 7.69l-21.822 9.832c-.934.421-1.675 1.254-2.049 2.306l-8.735 24.562c-1.234 3.47-5.598 3.47-6.832 0l-8.735-24.562c-.374-1.052-1.114-1.885-2.049-2.306l-21.822-9.832c-3.083-1.389-3.083-6.301 0-7.69l21.822-9.832c.934-.421 1.675-1.254 2.049-2.306l8.735-24.562c1.234-3.47 5.598-3.47 6.832 0z" fill="#fef2a8"/><path d="m66.132 9.89 6.48 18.22c.277.78.827 1.398 1.52 1.71l16.188 7.293c2.287 1.03 2.287 4.674 0 5.704l-16.188 7.293c-.693.312-1.242.93-1.52 1.711l-6.48 18.22c-.915 2.574-4.153 2.574-5.068 0l-6.48-18.22c-.278-.78-.827-1.398-1.52-1.711l-16.188-7.293c-2.287-1.03-2.287-4.674 0-5.704l16.188-7.293c.693-.312 1.242-.93 1.52-1.71l6.48-18.22c.915-2.574 4.153-2.574 5.068 0z" fill="#fef2a8"/><g fill="#ffe266"><circle cx="17.165" cy="120.789" r="12.96"/><path d="m401.992 33.321c0 5.559-4.507 10.066-10.066 10.066s-10.066-4.507-10.066-10.066 4.507-10.066 10.066-10.066 10.066 4.506 10.066 10.066z"/></g></g></svg>